<svg width="800" height="800" viewBox="0 0 800 800" fill="none" xmlns="http://www.w3.org/2000/svg">
<g>
<circle cx="400" cy="400" r="400" fill="black"/>
<path d="M217.617 226.262H184.863C180.632 226.262 176.23 226.77 171.66 227.785C167.259 228.632 163.197 230.07 159.473 232.102C155.749 234.133 152.702 236.757 150.332 239.973C147.962 243.189 146.777 247.082 146.777 251.652V252.16V341.281C146.777 354.315 144.915 365.826 141.191 375.812C137.467 385.63 132.643 394.178 126.719 401.457C133.828 410.598 138.822 420.415 141.699 430.91C144.746 441.405 146.27 451.223 146.27 460.363V550.246C146.27 556.171 147.793 560.91 150.84 564.465C153.887 567.85 157.526 570.474 161.758 572.336C165.99 574.029 170.221 575.129 174.453 575.637C178.685 575.975 181.986 576.145 184.355 576.145H217.109V642.922H183.848C176.908 642.922 169.46 642.16 161.504 640.637C153.717 639.283 145.931 636.997 138.145 633.781C130.527 630.734 123.164 626.757 116.055 621.848C109.115 616.939 102.936 611.014 97.5195 604.074C92.2721 597.134 88.0404 589.178 84.8242 580.207C81.7773 571.236 80.2539 561.079 80.2539 549.738V460.871C80.2539 451.9 77.8841 445.214 73.1445 440.812C68.5742 436.411 62.1419 434.211 53.8477 434.211C49.1081 434.211 44.707 433.365 40.6445 431.672C36.582 429.81 33.0273 427.44 29.9805 424.562C27.1029 421.516 24.8177 417.961 23.125 413.898C21.4323 409.836 20.5859 405.52 20.5859 400.949C20.5859 396.379 21.4323 392.147 23.125 388.254C24.8177 384.191 27.1029 380.721 29.9805 377.844C33.0273 374.797 36.4974 372.427 40.3906 370.734C44.4531 368.872 48.7695 367.857 53.3398 367.688C62.4805 367.688 69.3359 365.487 73.9062 361.086C78.4766 356.516 80.7617 349.914 80.7617 341.281V251.652C80.7617 237.095 83.724 224.146 89.6484 212.805C95.5729 201.464 103.444 191.9 113.262 184.113C123.079 176.327 134.167 170.402 146.523 166.34C159.049 162.277 171.829 160.246 184.863 160.246H217.617V226.262ZM595.47 371.242C595.47 386.307 593.608 399.764 589.884 411.613C586.16 423.462 581.082 433.957 574.65 443.098C568.387 452.069 561.108 459.771 552.814 466.203C544.52 472.635 535.802 477.883 526.662 481.945C517.69 486.008 508.55 488.97 499.24 490.832C490.099 492.694 481.466 493.625 473.341 493.625H324.045V427.609H473.341C481.805 426.932 489.422 425.24 496.193 422.531C503.133 419.654 509.058 415.845 513.966 411.105C518.875 406.366 522.684 400.695 525.392 394.094C528.101 387.323 529.455 379.706 529.455 371.242V341.281C528.608 332.987 526.831 325.37 524.123 318.43C521.414 311.49 517.69 305.565 512.951 300.656C508.38 295.747 502.795 291.939 496.193 289.23C489.591 286.353 481.974 284.914 473.341 284.914H324.552C315.75 284.914 309.064 287.199 304.494 291.77C299.923 296.34 297.638 302.941 297.638 311.574V583H231.623V311.574C231.623 294.647 234.67 280.259 240.763 268.41C247.026 256.561 254.728 246.997 263.869 239.719C273.179 232.44 283.25 227.193 294.084 223.977C304.917 220.591 314.904 218.898 324.045 218.898H473.341C488.237 218.898 501.61 220.845 513.459 224.738C525.308 228.462 535.718 233.54 544.689 239.973C553.83 246.236 561.532 253.514 567.795 261.809C574.227 270.103 579.474 278.82 583.537 287.961C587.768 296.932 590.815 306.073 592.677 315.383C594.539 324.523 595.47 333.156 595.47 341.281V371.242ZM778.07 400.949C778.07 405.52 777.223 409.836 775.53 413.898C773.838 417.961 771.468 421.516 768.421 424.562C765.543 427.44 762.073 429.81 758.011 431.672C754.118 433.365 749.886 434.211 745.316 434.211C736.683 434.211 729.997 436.411 725.257 440.812C720.687 445.214 718.402 451.9 718.402 460.871L718.909 549.738C718.909 561.079 717.301 571.236 714.085 580.207C710.869 589.178 706.553 597.134 701.136 604.074C695.719 611.014 689.456 616.939 682.347 621.848C675.407 626.757 668.043 630.734 660.257 633.781C652.64 636.997 644.853 639.283 636.898 640.637C629.111 642.16 621.748 642.922 614.808 642.922H582.054L581.546 576.145H614.808C617.008 576.145 620.224 575.975 624.456 575.637C628.688 575.129 632.835 574.029 636.898 572.336C641.129 570.474 644.769 567.85 647.816 564.465C650.862 560.91 652.386 556.171 652.386 550.246V460.363C652.386 451.223 653.909 441.405 656.956 430.91C660.172 420.415 665.166 410.598 671.937 401.457C666.012 394.178 661.103 385.63 657.21 375.812C653.486 365.826 651.624 354.315 651.624 341.281V252.16V251.652C650.778 246.913 649.17 242.935 646.8 239.719C644.599 236.503 641.806 233.879 638.421 231.848C635.036 229.816 631.227 228.378 626.995 227.531C622.933 226.685 618.701 226.262 614.3 226.262H581.038V160.246H614.3C628.011 160.246 641.129 162.447 653.655 166.848C666.181 171.079 677.184 177.258 686.663 185.383C696.312 193.339 703.929 202.987 709.515 214.328C715.101 225.5 717.894 237.941 717.894 251.652C717.894 252.837 717.978 260.878 718.148 275.773C718.317 290.5 718.402 312.336 718.402 341.281C718.402 349.914 720.602 356.516 725.003 361.086C729.404 365.487 736.175 367.688 745.316 367.688C749.886 367.857 754.118 368.872 758.011 370.734C762.073 372.427 765.543 374.797 768.421 377.844C771.468 380.721 773.838 384.191 775.53 388.254C777.223 392.147 778.07 396.379 778.07 400.949Z" fill="#F4F4F4"/>
</g>
</svg>
