<svg width="500" height="500" viewBox="0 0 500 500" fill="none" xmlns="http://www.w3.org/2000/svg">
<rect width="500" height="500" fill="black"/>
<path d="M145.094 150.189H126.197C123.756 150.189 121.217 150.482 118.58 151.068C116.041 151.557 113.697 152.387 111.549 153.559C109.4 154.73 107.643 156.244 106.275 158.1C104.908 159.955 104.225 162.201 104.225 164.838V165.131V216.547C104.225 224.066 103.15 230.707 101.002 236.469C98.8535 242.133 96.0703 247.064 92.6523 251.264C96.7539 256.537 99.6348 262.201 101.295 268.256C103.053 274.311 103.932 279.975 103.932 285.248V337.104C103.932 340.521 104.811 343.256 106.568 345.307C108.326 347.26 110.426 348.773 112.867 349.848C115.309 350.824 117.75 351.459 120.191 351.752C122.633 351.947 124.537 352.045 125.904 352.045H144.801V390.57H125.611C121.607 390.57 117.311 390.131 112.721 389.252C108.229 388.471 103.736 387.152 99.2441 385.297C94.8496 383.539 90.6016 381.244 86.5 378.412C82.4961 375.58 78.9316 372.162 75.8066 368.158C72.7793 364.154 70.3379 359.564 68.4824 354.389C66.7246 349.213 65.8457 343.354 65.8457 336.811V285.541C65.8457 280.365 64.4785 276.508 61.7441 273.969C59.1074 271.43 55.3965 270.16 50.6113 270.16C47.877 270.16 45.3379 269.672 42.9941 268.695C40.6504 267.621 38.5996 266.254 36.8418 264.594C35.1816 262.836 33.8633 260.785 32.8867 258.441C31.9102 256.098 31.4219 253.607 31.4219 250.971C31.4219 248.334 31.9102 245.893 32.8867 243.646C33.8633 241.303 35.1816 239.301 36.8418 237.641C38.5996 235.883 40.6016 234.516 42.8477 233.539C45.1914 232.465 47.6816 231.879 50.3184 231.781C55.5918 231.781 59.5469 230.512 62.1836 227.973C64.8203 225.336 66.1387 221.527 66.1387 216.547V164.838C66.1387 156.439 67.8477 148.969 71.2656 142.426C74.6836 135.883 79.2246 130.365 84.8887 125.873C90.5527 121.381 96.9492 117.963 104.078 115.619C111.305 113.275 118.678 112.104 126.197 112.104H145.094V150.189ZM363.086 233.832C363.086 242.523 362.012 250.287 359.863 257.123C357.715 263.959 354.785 270.014 351.074 275.287C347.461 280.463 343.262 284.906 338.477 288.617C333.691 292.328 328.662 295.355 323.389 297.699C318.213 300.043 312.939 301.752 307.568 302.826C302.295 303.9 297.314 304.438 292.627 304.438H206.494V266.352H292.627C297.51 265.961 301.904 264.984 305.811 263.422C309.814 261.762 313.232 259.564 316.064 256.83C318.896 254.096 321.094 250.824 322.656 247.016C324.219 243.109 325 238.715 325 233.832V216.547C324.512 211.762 323.486 207.367 321.924 203.363C320.361 199.359 318.213 195.941 315.479 193.109C312.842 190.277 309.619 188.08 305.811 186.518C302.002 184.857 297.607 184.027 292.627 184.027H206.787C201.709 184.027 197.852 185.346 195.215 187.982C192.578 190.619 191.26 194.428 191.26 199.408V356H153.174V199.408C153.174 189.643 154.932 181.342 158.447 174.506C162.061 167.67 166.504 162.152 171.777 157.953C177.148 153.754 182.959 150.727 189.209 148.871C195.459 146.918 201.221 145.941 206.494 145.941H292.627C301.221 145.941 308.936 147.064 315.771 149.311C322.607 151.459 328.613 154.389 333.789 158.1C339.062 161.713 343.506 165.912 347.119 170.697C350.83 175.482 353.857 180.512 356.201 185.785C358.643 190.961 360.4 196.234 361.475 201.605C362.549 206.879 363.086 211.859 363.086 216.547V233.832ZM468.432 250.971C468.432 253.607 467.943 256.098 466.967 258.441C465.99 260.785 464.623 262.836 462.865 264.594C461.205 266.254 459.203 267.621 456.859 268.695C454.613 269.672 452.172 270.16 449.535 270.16C444.555 270.16 440.697 271.43 437.963 273.969C435.326 276.508 434.008 280.365 434.008 285.541L434.301 336.811C434.301 343.354 433.373 349.213 431.518 354.389C429.662 359.564 427.172 364.154 424.047 368.158C420.922 372.162 417.309 375.58 413.207 378.412C409.203 381.244 404.955 383.539 400.463 385.297C396.068 387.152 391.576 388.471 386.986 389.252C382.494 390.131 378.246 390.57 374.242 390.57H355.346L355.053 352.045H374.242C375.512 352.045 377.367 351.947 379.809 351.752C382.25 351.459 384.643 350.824 386.986 349.848C389.428 348.773 391.527 347.26 393.285 345.307C395.043 343.256 395.922 340.521 395.922 337.104V285.248C395.922 279.975 396.801 274.311 398.559 268.256C400.414 262.201 403.295 256.537 407.201 251.264C403.783 247.064 400.951 242.133 398.705 236.469C396.557 230.707 395.482 224.066 395.482 216.547V165.131V164.838C394.994 162.104 394.066 159.809 392.699 157.953C391.43 156.098 389.818 154.584 387.865 153.412C385.912 152.24 383.715 151.41 381.273 150.922C378.93 150.434 376.488 150.189 373.949 150.189H354.76V112.104H373.949C381.859 112.104 389.428 113.373 396.654 115.912C403.881 118.354 410.229 121.918 415.697 126.605C421.264 131.195 425.658 136.762 428.881 143.305C432.104 149.75 433.715 156.928 433.715 164.838C433.715 165.521 433.764 170.16 433.861 178.754C433.959 187.25 434.008 199.848 434.008 216.547C434.008 221.527 435.277 225.336 437.816 227.973C440.355 230.512 444.262 231.781 449.535 231.781C452.172 231.879 454.613 232.465 456.859 233.539C459.203 234.516 461.205 235.883 462.865 237.641C464.623 239.301 465.99 241.303 466.967 243.646C467.943 245.893 468.432 248.334 468.432 250.971Z" fill="#F4F4F4"/>
<circle cx="250" cy="250" r="240" stroke="#F4F4F4" stroke-width="20"/>
</svg>
