<?xml version="1.0" encoding="utf-8"?>

<svg version="1.1" xmlns="http://www.w3.org/2000/svg" xmlns:xlink="http://www.w3.org/1999/xlink" x="0px" y="0px"
	 viewBox="0 0 350 350" style="enable-background:new 0 0 350 350;" xml:space="preserve">

<style type="text/css">
	.st0{fill:#FF66AA;}
	.st1{opacity:0.15;}
	.st2{clip-path:url(#SVGID_2_);}
	.st3{fill:#F1F1F2;}
	.st4{fill:#231F20;}
	.st5{fill:#808184;}
	.st6{fill:#929497;}
	.st7{fill:#636466;}
	.st8{fill:#59595C;}
	.st9{fill:#A7A8AB;}
	.st10{fill:#6D6E70;}
	.st11{fill:#221F1F;}
	.st12{fill:#404041;}
	.st13{fill:#58595B;}
	.st14{fill:#BBBDBF;}
	.st15{fill:#FFFFFF;}
	.st16{fill:#A6A8AB;}
	.st17{fill:#E6E7E8;}
	.st18{fill:#D0D2D3;}
</style>
<g id="Cookie">
	<circle class="st0" cx="175" cy="175" r="143.7"/>
</g>
<g class="st1">
	<defs>
		<circle id="SVGID_1_" class="st1" cx="175" cy="175" r="150"/>
	</defs>
	<clipPath id="SVGID_2_">
		<use xlink:href="#SVGID_1_"  style="overflow:visible;"/>
	</clipPath>
	<g class="st2">
		<polygon class="st3" points="-81.2,336.9 175,-106.9 431.2,336.9 			"/>
		<polygon class="st4" points="68.8,443.7 325,0 581.2,443.7 			"/>
		<polygon class="st5" points="-409.8,363.4 -153.6,-80.3 102.6,363.4 			"/>
		<polygon class="st6" points="61.4,158.2 317.6,-285.6 573.8,158.2 			"/>
		<polygon class="st7" points="-222.4,380 33.8,-63.7 290,380 			"/>
		<polygon class="st8" points="-100.1,646.9 156.1,203.1 412.3,646.9 			"/>
		<polygon class="st9" points="-164.9,147.2 -67.6,-21.3 29.7,147.2 			"/>
		<polygon class="st9" points="-83.4,523.8 13.9,355.3 111.2,523.8 			"/>
		<polygon class="st10" points="134.3,220.8 231.6,52.3 328.9,220.8 			"/>
		<polygon class="st9" points="298.7,485.7 396,317.2 493.2,485.7 			"/>
		<polygon class="st8" points="108.4,621.4 157,537.2 205.7,621.4 			"/>
		<polygon class="st11" points="278.7,305.9 327.3,221.7 375.9,305.9 			"/>
		<polygon class="st11" points="46.2,400 143.5,231.5 240.8,400 			"/>
		<polygon class="st5" points="108.8,-86.6 36.5,38.6 231.1,38.6 158.8,-86.6 			"/>
		<polygon class="st5" points="322,-86.6 298.4,-45.7 395.7,-45.7 372,-86.6 			"/>
		<polygon class="st12" points="35.3,332.5 132.6,164 229.9,332.5 			"/>
		<polygon class="st5" points="236.1,369.2 333.3,200.7 430.6,369.2 			"/>
		<polygon class="st8" points="-51.9,428.8 -3.8,345.5 44.3,428.8 			"/>
		<polygon class="st13" points="123.2,104.8 171.3,21.5 219.4,104.8 			"/>
		<polygon class="st11" points="283,90.2 331.1,6.9 379.2,90.2 			"/>
		<polygon class="st5" points="-61.9,331.6 -37.8,289.9 -13.8,331.6 			"/>
		<polygon class="st8" points="132.5,621.6 156.5,579.9 180.6,621.6 			"/>
		<polygon class="st8" points="216.7,465.6 240.7,423.9 264.7,465.6 			"/>
		<polygon class="st12" points="197.1,259.7 245.2,176.4 293.3,259.7 			"/>
		<polygon class="st3" points="283,239.3 331.1,156 379.2,239.3 			"/>
		<polygon class="st9" points="-49.5,78.8 -1.4,-4.5 46.7,78.8 			"/>
		<polygon class="st9" points="-97.9,225.4 -49.8,142.1 -1.7,225.4 			"/>
		<polygon class="st5" points="288.2,-20 312.2,-61.6 336.3,-20 			"/>
		<polygon class="st14" points="187.2,116.2 211.3,74.6 235.3,116.2 			"/>
		<polygon class="st15" points="231.9,63.8 238.3,52.8 244.7,63.8 			"/>
		<polygon class="st10" points="28.9,117.8 77,34.5 125.1,117.8 			"/>
		<polygon class="st16" points="110.8,331.9 158.9,248.6 207,331.9 			"/>
		<polygon class="st4" points="107,263.1 125.1,231.7 143.1,263.1 			"/>
		<polygon class="st9" points="214,285.3 238,243.6 262.1,285.3 			"/>
		<polygon class="st9" points="208.6,167.2 232.6,125.6 256.7,167.2 			"/>
		<polygon class="st3" points="226,102.8 274.1,19.5 322.1,102.8 			"/>
		<polygon class="st16" points="1.2,143.6 49.3,60.3 97.4,143.6 			"/>
		<polygon class="st8" points="14,272.2 32.3,240.4 50.6,272.2 			"/>
		<polygon class="st16" points="265.4,230.6 283.7,198.8 302,230.6 			"/>
		<polygon class="st15" points="156.7,84.8 175,53.1 193.3,84.8 			"/>
		<polygon class="st13" points="156.7,282.1 175,250.3 193.3,282.1 			"/>
		<polygon class="st8" points="-19.7,88 -1.4,56.2 17,88 			"/>
		<polygon class="st8" points="238.4,360.2 256.7,328.5 275,360.2 			"/>
		<polygon class="st5" points="307.5,135.6 325.8,103.8 344.1,135.6 			"/>
		<polygon class="st14" points="45.3,233.1 63.6,201.3 82,233.1 			"/>
		<polygon class="st3" points="72.3,295.1 90.6,263.3 109,295.1 			"/>
		<polygon class="st3" points="27.6,167.7 46,136 64.3,167.7 			"/>
		<polygon class="st8" points="113.7,123.7 122.8,107.9 132,123.7 			"/>
		<polygon class="st14" points="50.8,152.9 59.9,137.1 69.1,152.9 			"/>
		<polygon class="st17" points="107.7,84.4 116.9,68.5 126.1,84.4 			"/>
		<polygon class="st11" points="69,360.2 87.3,328.5 105.6,360.2 			"/>
		<polygon class="st8" points="112.2,419.2 130.5,387.4 148.8,419.2 			"/>
		<polygon class="st8" points="516.7,288.1 535.1,256.3 553.4,288.1 			"/>
		<polygon class="st5" points="187.7,61.9 206,30.1 224.4,61.9 			"/>
		<polygon class="st15" points="283.4,128.2 301.7,96.5 320,128.2 			"/>
		<polygon class="st8" points="316.6,622.1 325.8,606.2 335,622.1 			"/>
		<polygon class="st9" points="262.4,411.2 271.6,395.4 280.7,411.2 			"/>
		<polygon class="st8" points="577.5,394.4 586.7,378.5 595.9,394.4 			"/>
		<polygon class="st5" points="-97.4,339.9 -79.1,308.2 -60.7,339.9 			"/>
		<polygon class="st5" points="277.7,315.5 296.1,283.7 314.4,315.5 			"/>
		<polygon class="st9" points="286.9,268.6 296.1,252.7 305.2,268.6 			"/>
		<polygon class="st18" points="210.1,128.5 221,109.6 231.9,128.5 			"/>
		<polygon class="st5" points="94.9,-41.1 104,-57 113.2,-41.1 			"/>
		<polygon class="st8" points="386.7,121.9 405,90.2 423.4,121.9 			"/>
		<polygon class="st8" points="463,336.8 472.2,320.9 481.4,336.8 			"/>
	</g>
</g>

<path id="osu_x21__x5F_txt_x5F_Path_2_" class="st15" d="M100.1,206.4c-4.7,0-8.8-0.8-12.3-2.3s-6.4-3.7-8.6-6.4
	c-2.3-2.7-4-5.9-5.2-9.6c-1.2-3.7-1.7-7.6-1.7-11.9c0-4.3,0.6-8.3,1.7-12c1.2-3.7,2.9-7,5.2-9.7c2.3-2.7,5.2-4.9,8.6-6.5
	s7.6-2.4,12.3-2.4c4.7,0,8.8,0.8,12.3,2.4c3.5,1.6,6.4,3.7,8.8,6.5c2.3,2.7,4,6,5.2,9.7c1.1,3.7,1.7,7.7,1.7,12
	c0,4.3-0.6,8.2-1.7,11.9c-1.1,3.7-2.8,6.9-5.2,9.6c-2.3,2.7-5.2,4.9-8.8,6.4C109,205.7,104.8,206.4,100.1,206.4z M100.1,194.3
	c4.2,0,7.2-1.6,9-4.7c1.8-3.1,2.7-7.6,2.7-13.4c0-5.8-0.9-10.3-2.7-13.4c-1.8-3.1-4.8-4.7-9-4.7c-4.1,0-7.1,1.6-8.9,4.7
	c-1.8,3.1-2.7,7.6-2.7,13.4c0,5.8,0.9,10.3,2.7,13.4C93,192.8,96,194.3,100.1,194.3z M151.9,179.8c-4.2-1.2-7.5-3-9.8-5.3
	c-2.4-2.4-3.5-5.9-3.5-10.6c0-5.7,2-10.1,6.1-13.4c4.1-3.2,9.6-4.8,16.7-4.8c2.9,0,5.8,0.3,8.6,0.8c2.8,0.5,5.7,1.3,8.6,2.4
	c-0.2,1.9-0.5,4-1.1,6.1c-0.6,2.1-1.3,3.9-2.1,5.5c-1.8-0.7-3.8-1.4-5.9-2c-2.2-0.6-4.5-0.8-6.8-0.8c-2.5,0-4.5,0.4-5.9,1.2
	c-1.4,0.8-2.1,2-2.1,3.8c0,1.6,0.5,2.8,1.5,3.5c1,0.7,2.4,1.3,4.3,1.9l6.4,1.9c2.1,0.6,4,1.3,5.7,2.2c1.7,0.9,3.1,1.9,4.3,3.2
	c1.2,1.3,2.1,2.8,2.8,4.7c0.7,1.9,1,4.2,1,6.8c0,2.8-0.6,5.3-1.7,7.7c-1.2,2.4-2.8,4.5-5,6.2c-2.2,1.8-4.9,3.1-8,4.2
	c-3.1,1-6.7,1.5-10.7,1.5c-1.8,0-3.4-0.1-4.9-0.2c-1.5-0.1-2.9-0.3-4.3-0.6c-1.4-0.3-2.7-0.6-4.1-1c-1.3-0.4-2.8-0.9-4.4-1.5
	c0.1-2,0.5-4.1,1.1-6.1c0.6-2.1,1.3-4.1,2.2-6c2.5,1,4.8,1.7,7,2.2c2.2,0.5,4.5,0.7,6.9,0.7c1,0,2.2-0.1,3.4-0.3
	c1.2-0.2,2.4-0.5,3.4-1c1-0.5,1.9-1.1,2.6-1.9c0.7-0.8,1.1-1.8,1.1-3.1c0-1.8-0.5-3.1-1.6-3.9c-1.1-0.8-2.6-1.5-4.5-2.1L151.9,179.8
	z M191.2,147.1c2.7-0.4,5.3-0.7,8-0.7c2.6,0,5.3,0.2,8,0.7v30.7c0,3.1,0.2,5.6,0.7,7.6c0.5,2,1.2,3.6,2.2,4.7c1,1.2,2.3,2,3.8,2.5
	c1.5,0.5,3.3,0.7,5.3,0.7c2.8,0,5.1-0.3,7-0.8v-45.4c2.7-0.4,5.3-0.7,7.9-0.7c2.6,0,5.3,0.2,8,0.7v55.8c-2.4,0.8-5.6,1.6-9.5,2.4
	c-3.9,0.8-8,1.2-12.3,1.2c-3.8,0-7.5-0.3-11-0.9c-3.5-0.6-6.6-1.9-9.3-3.8c-2.7-1.9-4.8-4.8-6.3-8.5c-1.6-3.7-2.4-8.7-2.4-14.9
	V147.1z M257.1,205.1c-0.4-2.8-0.7-5.5-0.7-8.2c0-2.7,0.2-5.5,0.7-8.3c2.8-0.4,5.5-0.7,8.2-0.7c2.7,0,5.5,0.2,8.3,0.7
	c0.4,2.8,0.7,5.6,0.7,8.2c0,2.8-0.2,5.5-0.7,8.3c-2.8,0.4-5.6,0.7-8.2,0.7C262.6,205.7,259.9,205.5,257.1,205.1z M256.7,124.4
	c2.9-0.4,5.8-0.7,8.6-0.7c2.9,0,5.8,0.2,8.8,0.7l-1.1,54.9c-2.6,0.4-5.1,0.7-7.5,0.7c-2.5,0-5.1-0.2-7.6-0.7L256.7,124.4z"/>
<path id="Rim_6_" class="st15" d="M175,25C92.2,25,25,92.2,25,175c0,82.8,67.2,150,150,150c82.8,0,150-67.2,150-150
	C325,92.2,257.8,25,175,25z M175,310c-74.6,0-135-60.4-135-135c0-74.6,60.4-135,135-135s135,60.4,135,135
	C310,249.6,249.6,310,175,310z"/>
</svg>
